<svg id="svg" xmlns="http://www.w3.org/2000/svg" xmlns:xlink="http://www.w3.org/1999/xlink" width="400" height="400" viewBox="0, 0, 400,400" version="1.1"><g id="svgg"><path id="path0" d="M54.137 69.397 C 48.968 70.944,45.625 80.069,45.625 92.630 L 45.625 94.375 103.361 94.375 C 167.255 94.375,163.646 94.144,167.451 98.477 C 173.337 105.181,171.105 114.965,162.813 118.813 C 160.421 119.922,157.021 119.973,84.688 119.990 C 37.029 120.001,8.243 120.235,6.847 120.622 C -1.083 122.825,-2.427 134.873,4.865 138.386 C 6.701 139.271,14.710 139.375,80.802 139.378 C 130.962 139.381,155.454 139.595,157.075 140.045 C 166.952 142.788,169.732 156.720,161.746 163.454 C 157.087 167.382,160.418 167.158,101.563 167.500 C 59.613 167.744,47.506 167.987,46.418 168.609 C 42.221 171.008,40.511 178.068,43.100 182.313 C 45.828 186.788,42.516 186.527,101.040 186.875 L 153.643 187.188 156.353 189.090 C 163.819 194.333,164.206 205.778,157.092 210.992 C 152.661 214.240,156.832 214.040,86.452 214.375 C 20.974 214.686,20.709 214.693,18.952 215.995 C 9.641 222.895,14.201 233.742,26.414 233.748 L 31.890 233.750 31.556 236.094 C 30.653 242.430,28.693 265.908,28.699 270.313 C 28.719 286.163,40.201 296.875,57.171 296.875 L 62.204 296.875 62.964 300.156 C 72.228 340.143,130.821 340.926,144.766 301.250 L 146.194 297.188 193.566 296.871 C 246.601 296.517,243.611 296.777,251.299 291.844 L 254.261 289.943 257.785 292.197 C 262.208 295.026,265.274 296.115,270.255 296.626 L 274.178 297.027 274.986 300.182 C 285.321 340.508,343.026 341.021,357.024 300.912 L 358.433 296.875 362.810 296.839 C 376.804 296.724,389.026 287.908,393.087 275.000 C 394.347 270.993,400.009 213.120,400.003 204.311 C 399.998 198.650,396.067 194.379,390.858 194.376 C 388.353 194.375,388.978 195.331,379.825 177.500 C 368.324 155.094,353.472 126.387,351.606 122.955 C 348.484 117.212,350.576 117.505,312.656 117.502 C 294.352 117.501,279.375 117.397,279.375 117.272 C 279.375 117.146,279.938 112.889,280.625 107.812 C 283.724 84.925,277.623 73.236,260.707 69.650 C 255.933 68.638,57.484 68.395,54.137 69.397 M304.378 137.344 C 304.380 137.602,303.355 149.063,302.100 162.813 C 299.291 193.588,299.640 197.063,306.299 204.648 C 313.961 213.374,315.804 213.750,350.946 213.750 L 380.057 213.750 379.729 215.781 C 379.549 216.898,378.390 229.344,377.154 243.438 C 374.338 275.531,373.810 276.751,362.453 277.396 L 358.343 277.629 357.039 273.658 C 344.750 236.240,291.630 235.887,276.676 273.125 C 275.056 277.160,275.029 277.186,272.736 277.039 C 266.321 276.625,265.223 273.629,266.512 260.059 C 268.242 241.836,277.500 138.878,277.500 137.857 C 277.500 136.995,279.137 136.875,290.938 136.875 C 298.328 136.875,304.377 137.086,304.378 137.344 M114.498 267.019 C 125.714 272.159,130.889 287.039,125.207 297.813 C 113.782 319.478,82.491 313.676,81.387 289.688 C 80.581 272.144,98.665 259.763,114.498 267.019 M327.013 267.367 C 335.966 271.776,341.144 281.657,339.411 291.028 C 334.209 319.171,293.438 317.151,293.438 288.750 C 293.438 271.097,311.383 259.669,327.013 267.367 " stroke="none" fill="#000000" fill-rule="evenodd"></path></g></svg>