<svg id="svg" xmlns="http://www.w3.org/2000/svg" xmlns:xlink="http://www.w3.org/1999/xlink" width="400" height="186.0082304526749" viewBox="0, 0, 400,186.0082304526749" version="1.1"><g id="svgg"><path id="path0" d="M51.823 0.203 C 51.867 0.319,52.595 3.089,53.440 6.360 C 54.285 9.630,55.065 12.395,55.173 12.502 C 55.280 12.610,55.368 12.771,55.368 12.859 C 55.368 12.947,55.436 13.019,55.518 13.019 C 55.600 13.019,55.668 13.111,55.668 13.223 C 55.668 13.494,57.251 14.180,57.912 14.194 C 58.533 14.208,59.409 13.951,59.409 13.756 C 59.409 13.680,59.509 13.618,59.632 13.618 C 60.245 13.618,61.054 12.346,61.126 11.269 C 61.158 10.805,60.760 9.025,59.802 5.340 L 58.434 0.075 55.088 0.035 C 52.272 0.001,51.755 0.027,51.823 0.203 M65.693 27.864 C 65.489 27.939,65.268 28.098,65.201 28.217 C 65.135 28.335,64.989 28.432,64.878 28.432 C 64.409 28.432,63.790 29.720,63.784 30.708 C 63.776 31.958,69.355 46.116,70.215 47.027 C 72.215 49.148,75.835 47.571,75.647 44.661 C 75.575 43.556,69.919 29.460,69.249 28.715 C 68.414 27.787,66.887 27.422,65.693 27.864 M83.964 59.846 C 83.848 59.920,83.674 59.949,83.577 59.912 C 82.849 59.633,81.493 61.822,81.596 63.111 C 81.675 64.096,89.696 77.965,90.187 77.965 C 90.285 77.965,90.407 78.098,90.459 78.261 C 90.511 78.424,90.600 78.545,90.656 78.530 C 90.713 78.514,90.961 78.609,91.208 78.740 C 91.618 78.957,92.398 78.994,93.316 78.840 C 93.709 78.774,94.725 78.232,94.725 78.088 C 94.725 78.029,94.882 77.811,95.074 77.603 C 95.266 77.396,95.429 77.140,95.436 77.035 C 95.443 76.929,95.495 76.674,95.550 76.468 C 95.672 76.017,95.653 75.291,95.514 75.066 C 95.458 74.976,95.405 74.798,95.395 74.670 C 95.371 74.334,87.282 60.901,86.886 60.537 C 86.121 59.836,84.562 59.468,83.964 59.846 M108.254 87.116 C 108.209 87.188,108.117 87.214,108.050 87.172 C 107.983 87.130,107.844 87.197,107.743 87.319 C 107.641 87.442,107.477 87.542,107.378 87.542 C 107.179 87.542,106.547 88.163,106.547 88.358 C 106.547 88.426,106.445 88.557,106.321 88.648 C 105.827 89.011,105.735 90.615,106.159 91.494 C 106.484 92.169,117.724 103.800,117.890 103.633 C 117.934 103.589,118.094 103.665,118.244 103.801 C 118.395 103.938,118.519 103.997,118.519 103.933 C 118.519 103.869,118.603 103.886,118.706 103.972 C 119.027 104.238,120.542 104.114,120.897 103.793 C 121.070 103.636,121.212 103.564,121.212 103.634 C 121.212 103.922,122.157 102.830,122.437 102.218 C 122.759 101.514,122.906 100.309,122.686 100.173 C 122.613 100.128,122.588 100.036,122.630 99.969 C 122.671 99.902,122.605 99.764,122.482 99.662 C 122.360 99.560,122.260 99.392,122.260 99.289 C 122.260 99.084,111.131 87.653,110.840 87.559 C 110.742 87.528,110.571 87.430,110.460 87.341 C 110.098 87.054,108.399 86.881,108.254 87.116 M137.211 109.548 C 137.102 109.615,136.967 109.641,136.910 109.605 C 136.852 109.570,136.590 109.743,136.326 109.989 C 136.062 110.236,135.793 110.438,135.729 110.438 C 135.551 110.438,135.106 111.177,135.196 111.323 C 135.240 111.394,135.181 111.530,135.065 111.626 C 134.500 112.095,134.880 113.929,135.723 114.800 C 136.367 115.466,148.555 124.261,149.060 124.424 C 149.744 124.645,151.052 124.640,151.403 124.414 C 151.588 124.295,151.742 124.250,151.744 124.314 C 151.747 124.377,151.817 124.312,151.901 124.168 C 151.985 124.024,152.135 123.905,152.233 123.905 C 152.442 123.904,153.182 122.866,153.119 122.664 C 153.095 122.589,153.151 122.436,153.244 122.325 C 153.336 122.214,153.371 122.057,153.321 121.977 C 153.272 121.897,153.291 121.794,153.364 121.749 C 153.604 121.601,153.246 120.258,152.805 119.647 C 152.335 118.996,139.580 109.691,139.157 109.690 C 139.027 109.690,138.871 109.640,138.811 109.581 C 138.657 109.427,137.447 109.402,137.211 109.548 M255.550 114.518 C 254.944 114.719,254.766 115.366,254.965 116.642 C 255.087 117.427,255.090 118.119,254.976 119.134 C 254.832 120.414,254.875 123.068,255.048 123.609 C 255.087 123.731,255.160 124.016,255.209 124.242 C 255.418 125.195,255.597 124.605,255.526 123.195 L 255.453 121.736 255.727 123.307 C 256.197 126.001,256.362 128.492,256.382 133.205 C 256.402 137.586,256.200 143.486,256.028 143.593 C 255.957 143.637,252.629 143.365,248.634 142.988 C 240.140 142.186,240.520 142.166,239.191 143.493 C 238.900 143.783,238.683 144.151,238.683 144.353 C 238.683 144.547,238.607 144.706,238.514 144.706 C 238.321 144.706,238.452 146.268,238.700 146.920 C 238.872 147.373,239.985 148.447,240.281 148.447 C 240.392 148.447,240.600 148.512,240.743 148.592 C 240.886 148.671,244.221 149.033,248.155 149.397 C 252.089 149.760,255.343 150.093,255.386 150.136 C 255.586 150.336,254.748 155.367,254.096 157.875 C 254.022 158.163,253.919 158.601,253.867 158.848 C 253.816 159.095,253.717 159.431,253.648 159.596 C 253.578 159.761,253.482 160.080,253.434 160.307 C 253.387 160.533,253.310 160.903,253.262 161.130 C 253.215 161.356,253.119 161.676,253.049 161.841 C 252.979 162.005,252.883 162.325,252.836 162.551 C 252.788 162.778,252.711 163.148,252.664 163.374 C 252.616 163.601,252.520 163.921,252.450 164.085 C 252.381 164.250,252.285 164.570,252.237 164.796 C 252.190 165.022,252.112 165.393,252.065 165.619 C 252.018 165.845,251.924 166.165,251.858 166.330 C 251.791 166.495,251.652 166.932,251.548 167.303 C 251.130 168.801,249.726 173.093,249.468 173.663 C 249.393 173.827,249.158 174.345,248.946 174.813 C 247.810 177.317,250.286 178.036,252.450 175.831 C 252.557 175.723,253.814 174.898,254.171 174.702 C 254.336 174.612,254.965 174.257,255.569 173.913 C 256.173 173.570,256.723 173.288,256.791 173.288 C 256.859 173.288,256.937 173.224,256.965 173.146 C 257.013 173.007,259.868 171.599,265.694 168.838 C 269.349 167.106,277.186 164.023,278.575 163.771 C 278.767 163.736,280.358 163.247,282.110 162.683 C 287.368 160.993,290.332 160.154,295.623 158.860 C 296.775 158.578,298.027 158.242,298.405 158.113 C 298.783 157.985,299.322 157.849,299.602 157.811 C 299.883 157.774,300.584 157.633,301.160 157.498 C 301.736 157.362,302.477 157.222,302.806 157.186 C 307.943 156.626,310.210 154.829,310.318 151.232 C 310.403 148.425,307.856 145.155,305.586 145.155 C 305.425 145.155,305.251 145.088,305.200 145.006 C 305.149 144.923,304.947 144.856,304.751 144.856 C 304.555 144.856,304.353 144.789,304.302 144.706 C 304.251 144.624,304.117 144.557,304.005 144.557 C 303.892 144.557,303.340 144.349,302.779 144.096 C 302.218 143.842,301.523 143.529,301.235 143.399 C 300.188 142.929,293.935 139.878,292.331 139.054 C 291.425 138.589,290.079 137.903,289.338 137.530 C 288.597 137.156,287.957 136.811,287.916 136.763 C 287.875 136.716,287.639 136.575,287.392 136.451 C 286.648 136.076,284.859 135.099,284.699 134.979 C 284.617 134.918,284.111 134.633,283.577 134.345 C 282.044 133.523,281.552 133.240,279.162 131.815 C 276.627 130.303,276.398 130.163,276.177 129.997 C 275.716 129.648,274.405 128.844,274.298 128.844 C 274.230 128.844,274.151 128.793,274.124 128.732 C 274.055 128.576,272.224 127.348,272.062 127.348 C 271.989 127.348,271.907 127.293,271.879 127.226 C 271.831 127.109,269.888 125.561,269.214 125.103 C 269.032 124.979,268.738 124.753,268.561 124.599 C 268.383 124.446,268.070 124.211,267.864 124.078 C 267.447 123.808,264.839 121.810,264.721 121.670 C 264.680 121.621,264.435 121.414,264.177 121.210 C 263.919 121.005,263.454 120.636,263.143 120.389 C 261.763 119.292,259.195 116.961,258.511 116.184 C 256.973 114.437,256.533 114.190,255.550 114.518 M169.719 126.918 C 168.792 127.088,167.375 128.202,167.290 128.827 C 167.283 128.878,167.245 129.087,167.204 129.293 C 166.718 131.767,166.944 131.955,175.560 136.268 C 182.688 139.836,182.958 139.954,183.913 139.931 C 184.686 139.913,184.811 139.883,184.811 139.718 C 184.811 139.636,184.854 139.612,184.907 139.664 C 185.053 139.810,185.848 139.290,185.944 138.985 C 185.991 138.837,186.083 138.749,186.148 138.789 C 186.278 138.870,186.786 137.831,186.864 137.323 C 187.025 136.275,186.750 135.323,186.082 134.614 C 185.551 134.052,171.133 126.760,170.937 126.955 C 170.892 127.001,170.746 126.984,170.613 126.918 C 170.479 126.853,170.077 126.853,169.719 126.918 M203.962 137.990 C 203.218 138.323,202.619 138.823,202.619 139.110 C 202.619 139.213,202.513 139.404,202.383 139.534 C 201.604 140.313,202.485 143.509,203.479 143.509 C 203.594 143.509,203.775 143.596,203.881 143.703 C 204.127 143.948,218.947 147.892,219.753 147.926 C 220.724 147.968,222.372 147.102,222.372 146.550 C 222.372 146.495,222.487 146.324,222.627 146.169 C 222.965 145.796,222.984 143.360,222.649 143.360 C 222.590 143.360,222.501 143.233,222.452 143.078 C 222.313 142.639,221.731 142.086,221.100 141.791 C 220.542 141.532,205.985 137.778,205.384 137.739 C 204.867 137.706,204.422 137.785,203.962 137.990 " stroke="none" fill="#000000" fill-rule="evenodd"></path></g></svg>